<svg width="22" height="24" viewBox="0 0 22 24" fill="none" xmlns="http://www.w3.org/2000/svg">
<path d="M9.04077 6.21875H16.975C17.1189 6.21875 17.2496 6.28286 17.3443 6.38611C17.4389 6.48936 17.4977 6.63195 17.4977 6.78897V13.2761C17.4977 13.4331 17.4389 13.5757 17.3443 13.6789C17.2496 13.7822 17.1189 13.8463 16.975 13.8463H16.8703V15.6525C16.8703 15.7522 16.7962 15.8331 16.7047 15.8331C16.6481 15.8331 16.5982 15.8022 16.5683 15.7549L15.094 13.8463H13.646V8.73676C13.646 8.53723 13.5733 8.34719 13.4441 8.20617C13.3148 8.06516 13.1406 7.9859 12.9577 7.9859H8.51807V6.78899C8.51807 6.63197 8.57682 6.48938 8.67147 6.38613C8.76612 6.28288 8.89683 6.21877 9.04076 6.21877L9.04077 6.21875Z" fill="#2B2A35"/>
<path d="M5.02416 8.1665H12.9584C13.1023 8.1665 13.233 8.2306 13.3277 8.33386C13.4223 8.4371 13.4811 8.57971 13.4811 8.73671V15.2238C13.4811 15.3808 13.4223 15.5234 13.3277 15.6267C13.233 15.7299 13.1023 15.794 12.9584 15.794H6.90516L5.43084 17.7027C5.40098 17.7499 5.35102 17.7809 5.29444 17.7809C5.20299 17.7809 5.12883 17.7 5.12883 17.6002V15.794H5.02416C4.88022 15.794 4.74951 15.7299 4.65487 15.6267C4.56022 15.5234 4.50146 15.3808 4.50146 15.2238V8.73671C4.50146 8.57971 4.56022 8.4371 4.65487 8.33386C4.74951 8.2306 4.88023 8.1665 5.02416 8.1665H5.02416ZM8.60768 10.8452C8.51622 10.8452 8.44207 10.9261 8.44207 11.0259C8.44207 11.1257 8.51622 11.2066 8.60768 11.2066H9.37488C9.46633 11.2066 9.54048 11.1257 9.54048 11.0259C9.54048 10.9261 9.46633 10.8452 9.37488 10.8452H8.60768ZM6.20145 10.8452C6.10999 10.8452 6.03585 10.9261 6.03585 11.0259C6.03585 11.1257 6.10999 11.2066 6.20145 11.2066H6.96865C7.06012 11.2066 7.13426 11.1257 7.13426 11.0259C7.13426 10.9261 7.06012 10.8452 6.96865 10.8452H6.20145ZM11.0139 10.8452C10.9224 10.8452 10.8483 10.9261 10.8483 11.0259C10.8483 11.1257 10.9224 11.2066 11.0139 11.2066H11.7811C11.8725 11.2066 11.9467 11.1257 11.9467 11.0259C11.9467 10.9261 11.8725 10.8452 11.7811 10.8452H11.0139Z" fill="#2B2A35"/>
</svg>
