<svg width="20" height="21" viewBox="0 0 20 21" fill="none" xmlns="http://www.w3.org/2000/svg">
<path d="M9.99996 0C4.47725 0 0 4.70098 0 10.4998C0 16.2993 4.47725 21 9.99996 21C15.5229 21 20 16.2993 20 10.4998C20 4.70098 15.5229 0 9.99996 0Z" fill="#2B2A35"/>
<path d="M14.3663 14.9164C14.1893 15.2212 13.8113 15.3166 13.5221 15.1309C11.2093 13.6467 8.29818 13.3115 4.86977 14.1337C4.53939 14.2132 4.21006 13.9959 4.1348 13.6491C4.05906 13.3022 4.26535 12.9565 4.59643 12.8773C8.34827 11.9768 11.5665 12.3643 14.1626 14.0299C14.452 14.2156 14.5431 14.6126 14.3663 14.9164Z" fill="white"/>
<path d="M15.5714 12.1003C15.3486 12.4798 14.8761 12.5989 14.5151 12.3658C11.8683 10.6575 7.83214 10.1626 4.70072 11.1607C4.29472 11.2895 3.86578 11.0491 3.7424 10.6235C3.62009 10.1972 3.84908 9.74762 4.25447 9.61799C7.83168 8.47813 12.2787 9.03017 15.3188 10.9918C15.6797 11.2252 15.7933 11.7217 15.5714 12.1003Z" fill="white"/>
<path d="M15.6755 9.16808C12.5007 7.18835 7.2639 7.00631 4.23315 7.97218C3.74634 8.12727 3.23167 7.83878 3.0843 7.32778C2.93681 6.81639 3.21121 6.27634 3.69824 6.12103C7.17744 5.01218 12.9609 5.2263 16.6159 7.50436C17.0537 7.77731 17.1972 8.37091 16.9377 8.82981C16.6781 9.28949 16.1122 9.441 15.6755 9.16808Z" fill="white"/>
</svg>
