<svg width="22" height="16" viewBox="0 0 22 16" fill="none" xmlns="http://www.w3.org/2000/svg">
<path fill-rule="evenodd" clip-rule="evenodd" d="M8.7285 10.9505L8.72781 4.55894L14.6719 7.76577L8.7285 10.9505ZM21.78 3.45137C21.78 3.45137 21.5648 1.88386 20.9055 1.19359C20.0688 0.287205 19.1311 0.282931 18.7014 0.230325C15.6227 -3.33786e-06 11.0048 0 11.0048 0H10.9952C10.9952 0 6.37725 -3.33786e-06 3.29863 0.230325C2.86825 0.282931 1.93119 0.287205 1.09381 1.19359C0.434502 1.88386 0.219998 3.45137 0.219998 3.45137C0.219998 3.45137 0 5.29258 0 7.13307V8.85912C0 10.7003 0.219998 12.5408 0.219998 12.5408C0.219998 12.5408 0.434502 14.1083 1.09381 14.7986C1.93119 15.705 3.0305 15.6765 3.52 15.7711C5.28 15.946 11 16 11 16C11 16 15.6227 15.9929 18.7014 15.7626C19.1311 15.7092 20.0688 15.705 20.9055 14.7986C21.5648 14.1083 21.78 12.5408 21.78 12.5408C21.78 12.5408 22 10.7003 22 8.85912V7.13307C22 5.29258 21.78 3.45137 21.78 3.45137Z" fill="#2B2A35"/>
</svg>
